<svg xmlns="http://www.w3.org/2000/svg" width="1440" height="2200" viewBox="0 0 1440 2200" role="img" aria-label="NDTHICH Liên hệ Web">
<defs>
  <linearGradient id="heroBg" x1="0" y1="0" x2="1" y2="1"><stop offset="0" stop-color="#FFF"/><stop offset=".72" stop-color="#FBF7F5"/><stop offset="1" stop-color="#F2E5E6"/></linearGradient>
  <linearGradient id="photoA" x1="0" y1="0" x2="1" y2="1"><stop offset="0" stop-color="#D3D8DD"/><stop offset=".5" stop-color="#B5BEC5"/><stop offset="1" stop-color="#89949C"/></linearGradient>
  <linearGradient id="photoB" x1="0" y1="0" x2="1" y2="1"><stop offset="0" stop-color="#E6D6CE"/><stop offset=".5" stop-color="#C5AEA1"/><stop offset="1" stop-color="#9A786A"/></linearGradient>
  <linearGradient id="photoC" x1="0" y1="0" x2="1" y2="1"><stop offset="0" stop-color="#D7DED5"/><stop offset=".5" stop-color="#B1C0AF"/><stop offset="1" stop-color="#7F927D"/></linearGradient>
  <linearGradient id="redGlow" x1="0" x2="1"><stop offset="0" stop-color="#8A1822"/><stop offset="1" stop-color="#B72E38"/></linearGradient>
  <filter id="shadow" x="-30%" y="-30%" width="160%" height="160%"><feDropShadow dx="0" dy="12" stdDeviation="16" flood-color="#121212" flood-opacity=".10"/></filter>
  <filter id="shadow2" x="-30%" y="-30%" width="160%" height="160%"><feDropShadow dx="0" dy="20" stdDeviation="24" flood-color="#121212" flood-opacity=".14"/></filter>
</defs>
<rect width="100%" height="100%" fill="#FFFFFF"/><rect x="0" y="0" width="1440" height="72" rx="0" fill="#fff" opacity="1" /><line x1="0" y1="71" x2="1440" y2="71" stroke="#E8E2DF" stroke-width="1" opacity="1"/><rect x="40" y="12" width="48" height="48" rx="12" fill="#F6EAEB" opacity="1" stroke="#8A1822" stroke-width="1" /><text x="64.0" y="34.0" font-family="Be Vietnam Pro, Noto Sans, Arial, sans-serif" font-size="9" font-weight="800" letter-spacing="0" fill="#8A1822" text-anchor="middle" opacity="1">NO</text><text x="64.0" y="46.0" font-family="Be Vietnam Pro, Noto Sans, Arial, sans-serif" font-size="7" font-weight="800" letter-spacing="0" fill="#8A1822" text-anchor="middle" opacity="1">LOGO</text><text x="102" y="31" font-family="Be Vietnam Pro, Noto Sans, Arial, sans-serif" font-size="16" font-weight="800" letter-spacing="0" fill="#8A1822" text-anchor="start" opacity="1">NDTHICH LAND</text><text x="102" y="50" font-family="Be Vietnam Pro, Noto Sans, Arial, sans-serif" font-size="8.5" font-weight="600" letter-spacing="0.35" fill="#7A7A7A" text-anchor="start" opacity="1">ĐẦU TƯ &amp; KINH DOANH NGUYỄN ĐẮC THÍCH</text><text x="680" y="42" font-family="Be Vietnam Pro, Noto Sans, Arial, sans-serif" font-size="12.5" font-weight="700" letter-spacing="0" fill="#171717" text-anchor="middle" opacity="1">Trang chủ</text><text x="776" y="42" font-family="Be Vietnam Pro, Noto Sans, Arial, sans-serif" font-size="12.5" font-weight="700" letter-spacing="0" fill="#171717" text-anchor="middle" opacity="1">Cho thuê</text><text x="872" y="42" font-family="Be Vietnam Pro, Noto Sans, Arial, sans-serif" font-size="12.5" font-weight="700" letter-spacing="0" fill="#171717" text-anchor="middle" opacity="1">Dự án</text><text x="968" y="42" font-family="Be Vietnam Pro, Noto Sans, Arial, sans-serif" font-size="12.5" font-weight="700" letter-spacing="0" fill="#171717" text-anchor="middle" opacity="1">Giới thiệu</text><text x="1064" y="42" font-family="Be Vietnam Pro, Noto Sans, Arial, sans-serif" font-size="12.5" font-weight="700" letter-spacing="0" fill="#171717" text-anchor="middle" opacity="1">Tin tức</text><text x="1160" y="42" font-family="Be Vietnam Pro, Noto Sans, Arial, sans-serif" font-size="12.5" font-weight="700" letter-spacing="0" fill="#8A1822" text-anchor="middle" opacity="1">Liên hệ</text><rect x="1132" y="61" width="56" height="3" rx="2" fill="#8A1822" opacity="1" /><rect x="1250" y="15" width="150" height="42" rx="10" fill="#8A1822" opacity="1" /><text x="1325.0" y="41.0" font-family="Be Vietnam Pro, Noto Sans, Arial, sans-serif" font-size="13" font-weight="700" letter-spacing="0.2" fill="#fff" text-anchor="middle" opacity="1">0986 602 203</text><rect x="88" y="112" width="1264" height="500" rx="22" fill="#FCF5F5" opacity="1" /><text x="124" y="182" font-family="Be Vietnam Pro, Noto Sans, Arial, sans-serif" font-size="40" font-weight="800" letter-spacing="0" fill="#171717" text-anchor="start" opacity="1">Liên hệ NDTHICH</text><text x="124" y="236" font-family="Be Vietnam Pro, Noto Sans, Arial, sans-serif" font-size="15" font-weight="400" letter-spacing="0" fill="#4D4D4D" text-anchor="start"><tspan x="124" dy="0">Trao đổi trực tiếp về bất động sản cho thuê</tspan><tspan x="124" dy="24.0">hoặc thông tin dự án.</tspan></text><rect x="124" y="336" width="182" height="50" rx="10" fill="#8A1822" opacity="1" /><g transform="translate(142,351.0) scale(0.8333333333333334)"><path d="M7.2 3.5 4.5 5.1c-1.1.7-.8 3.4.7 6.5 1.8 3.8 5.4 7.4 9.1 9.2 3 1.5 5.7 1.8 6.5.7l1.6-2.7-5.1-3.1-1.6 2c-.4.5-2-.2-3.7-1.3-1.7-1.2-3.6-3.1-4.8-4.8-1.1-1.7-1.8-3.3-1.3-3.7l2-1.6-2.7-2.8Z" fill="none" stroke="#fff" stroke-width="1.8" stroke-linecap="round" stroke-linejoin="round"/></g><text x="223.0" y="366.0" font-family="Be Vietnam Pro, Noto Sans, Arial, sans-serif" font-size="13" font-weight="700" letter-spacing="0.2" fill="#fff" text-anchor="middle" opacity="1">GỌI 0986 602 203</text><rect x="322" y="336" width="160" height="50" rx="10" fill="#fff" opacity="1" stroke="#8A1822" stroke-width="1" /><g transform="translate(340,351.0) scale(0.8333333333333334)"><path d="M4 5h16v11H9l-5 4V5Z" fill="none" stroke="#8A1822" stroke-width="1.8" stroke-linecap="round" stroke-linejoin="round"/></g><text x="410.0" y="366.0" font-family="Be Vietnam Pro, Noto Sans, Arial, sans-serif" font-size="13" font-weight="700" letter-spacing="0.2" fill="#8A1822" text-anchor="middle" opacity="1">NHẮN ZALO</text><rect x="760" y="148" width="556" height="428" rx="16" fill="url(#photoC)" opacity="1" /><rect x="804.48" y="327.7599999999999" width="50.04" height="188.32000000000002" rx="5" fill="#EDEFF0" opacity="0.9" /><rect x="814.48" y="341.7599999999999" width="7" height="9" rx="1" fill="#AAB3BA" opacity="0.72" /><rect x="836.5" y="341.7599999999999" width="7" height="9" rx="1" fill="#AAB3BA" opacity="0.72" /><rect x="814.48" y="388.83999999999986" width="7" height="9" rx="1" fill="#AAB3BA" opacity="0.72" /><rect x="836.5" y="388.83999999999986" width="7" height="9" rx="1" fill="#AAB3BA" opacity="0.72" /><rect x="814.48" y="435.9199999999999" width="7" height="9" rx="1" fill="#AAB3BA" opacity="0.72" /><rect x="836.5" y="435.9199999999999" width="7" height="9" rx="1" fill="#AAB3BA" opacity="0.72" /><rect x="882.32" y="293.5199999999999" width="58.379999999999995" height="222.56" rx="5" fill="#EDEFF0" opacity="0.9" /><rect x="892.32" y="307.5199999999999" width="7" height="9" rx="1" fill="#AAB3BA" opacity="0.72" /><rect x="918.51" y="307.5199999999999" width="7" height="9" rx="1" fill="#AAB3BA" opacity="0.72" /><rect x="892.32" y="363.1599999999999" width="7" height="9" rx="1" fill="#AAB3BA" opacity="0.72" /><rect x="918.51" y="363.1599999999999" width="7" height="9" rx="1" fill="#AAB3BA" opacity="0.72" /><rect x="892.32" y="418.79999999999995" width="7" height="9" rx="1" fill="#AAB3BA" opacity="0.72" /><rect x="918.51" y="418.79999999999995" width="7" height="9" rx="1" fill="#AAB3BA" opacity="0.72" /><rect x="960.1600000000001" y="396.2399999999999" width="50.04" height="119.84000000000002" rx="5" fill="#EDEFF0" opacity="0.9" /><rect x="970.1600000000001" y="410.2399999999999" width="7" height="9" rx="1" fill="#AAB3BA" opacity="0.72" /><rect x="992.1800000000001" y="410.2399999999999" width="7" height="9" rx="1" fill="#AAB3BA" opacity="0.72" /><rect x="970.1600000000001" y="440.1999999999999" width="7" height="9" rx="1" fill="#AAB3BA" opacity="0.72" /><rect x="992.1800000000001" y="440.1999999999999" width="7" height="9" rx="1" fill="#AAB3BA" opacity="0.72" /><rect x="970.1600000000001" y="470.1599999999999" width="7" height="9" rx="1" fill="#AAB3BA" opacity="0.72" /><rect x="992.1800000000001" y="470.1599999999999" width="7" height="9" rx="1" fill="#AAB3BA" opacity="0.72" /><rect x="1038.0" y="361.9999999999999" width="58.379999999999995" height="154.08" rx="5" fill="#EDEFF0" opacity="0.9" /><rect x="1048.0" y="375.9999999999999" width="7" height="9" rx="1" fill="#AAB3BA" opacity="0.72" /><rect x="1074.19" y="375.9999999999999" width="7" height="9" rx="1" fill="#AAB3BA" opacity="0.72" /><rect x="1048.0" y="414.51999999999987" width="7" height="9" rx="1" fill="#AAB3BA" opacity="0.72" /><rect x="1074.19" y="414.51999999999987" width="7" height="9" rx="1" fill="#AAB3BA" opacity="0.72" /><rect x="1048.0" y="453.0399999999999" width="7" height="9" rx="1" fill="#AAB3BA" opacity="0.72" /><rect x="1074.19" y="453.0399999999999" width="7" height="9" rx="1" fill="#AAB3BA" opacity="0.72" /><rect x="1115.8400000000001" y="327.7599999999999" width="50.04" height="188.32000000000002" rx="5" fill="#EDEFF0" opacity="0.9" /><rect x="1125.8400000000001" y="341.7599999999999" width="7" height="9" rx="1" fill="#AAB3BA" opacity="0.72" /><rect x="1147.8600000000001" y="341.7599999999999" width="7" height="9" rx="1" fill="#AAB3BA" opacity="0.72" /><rect x="1125.8400000000001" y="388.83999999999986" width="7" height="9" rx="1" fill="#AAB3BA" opacity="0.72" /><rect x="1147.8600000000001" y="388.83999999999986" width="7" height="9" rx="1" fill="#AAB3BA" opacity="0.72" /><rect x="1125.8400000000001" y="435.9199999999999" width="7" height="9" rx="1" fill="#AAB3BA" opacity="0.72" /><rect x="1147.8600000000001" y="435.9199999999999" width="7" height="9" rx="1" fill="#AAB3BA" opacity="0.72" /><rect x="1193.68" y="293.5199999999999" width="58.379999999999995" height="222.56" rx="5" fill="#EDEFF0" opacity="0.9" /><rect x="1203.68" y="307.5199999999999" width="7" height="9" rx="1" fill="#AAB3BA" opacity="0.72" /><rect x="1229.8700000000001" y="307.5199999999999" width="7" height="9" rx="1" fill="#AAB3BA" opacity="0.72" /><rect x="1203.68" y="363.1599999999999" width="7" height="9" rx="1" fill="#AAB3BA" opacity="0.72" /><rect x="1229.8700000000001" y="363.1599999999999" width="7" height="9" rx="1" fill="#AAB3BA" opacity="0.72" /><rect x="1203.68" y="418.79999999999995" width="7" height="9" rx="1" fill="#AAB3BA" opacity="0.72" /><rect x="1229.8700000000001" y="418.79999999999995" width="7" height="9" rx="1" fill="#AAB3BA" opacity="0.72" /><path d="M1082.48 576 L1215.92 148 L1316 148 L1316 576 Z" fill="#FFFFFF" stroke-linecap="round" stroke-linejoin="round" opacity=".10"/><text x="776" y="558" font-family="Be Vietnam Pro, Noto Sans, Arial, sans-serif" font-size="11" font-weight="700" letter-spacing="0" fill="#fff" text-anchor="start" opacity="1">Google Maps / văn phòng</text><rect x="88" y="682" width="402" height="132" rx="16" fill="#fff" opacity="1" stroke="#E8E2DF" stroke-width="1" /><circle cx="136" cy="732" r="23" fill="#F6EAEB"/><g transform="translate(124,720) scale(1.0)"><path d="M7.2 3.5 4.5 5.1c-1.1.7-.8 3.4.7 6.5 1.8 3.8 5.4 7.4 9.1 9.2 3 1.5 5.7 1.8 6.5.7l1.6-2.7-5.1-3.1-1.6 2c-.4.5-2-.2-3.7-1.3-1.7-1.2-3.6-3.1-4.8-4.8-1.1-1.7-1.8-3.3-1.3-3.7l2-1.6-2.7-2.8Z" fill="none" stroke="#8A1822" stroke-width="1.8" stroke-linecap="round" stroke-linejoin="round"/></g><text x="174" y="724" font-family="Be Vietnam Pro, Noto Sans, Arial, sans-serif" font-size="11" font-weight="700" letter-spacing="0" fill="#7A7A7A" text-anchor="start" opacity="1">Hotline chính</text><text x="174" y="754" font-family="Be Vietnam Pro, Noto Sans, Arial, sans-serif" font-size="16" font-weight="800" letter-spacing="0" fill="#171717" text-anchor="start" opacity="1">0986 602 203</text><rect x="512" y="682" width="402" height="132" rx="16" fill="#fff" opacity="1" stroke="#E8E2DF" stroke-width="1" /><circle cx="560" cy="732" r="23" fill="#F6EAEB"/><g transform="translate(548,720) scale(1.0)"><path d="M7.2 3.5 4.5 5.1c-1.1.7-.8 3.4.7 6.5 1.8 3.8 5.4 7.4 9.1 9.2 3 1.5 5.7 1.8 6.5.7l1.6-2.7-5.1-3.1-1.6 2c-.4.5-2-.2-3.7-1.3-1.7-1.2-3.6-3.1-4.8-4.8-1.1-1.7-1.8-3.3-1.3-3.7l2-1.6-2.7-2.8Z" fill="none" stroke="#8A1822" stroke-width="1.8" stroke-linecap="round" stroke-linejoin="round"/></g><text x="598" y="724" font-family="Be Vietnam Pro, Noto Sans, Arial, sans-serif" font-size="11" font-weight="700" letter-spacing="0" fill="#7A7A7A" text-anchor="start" opacity="1">Hotline phụ</text><text x="598" y="754" font-family="Be Vietnam Pro, Noto Sans, Arial, sans-serif" font-size="16" font-weight="800" letter-spacing="0" fill="#171717" text-anchor="start" opacity="1">0985 551 396</text><rect x="936" y="682" width="402" height="132" rx="16" fill="#fff" opacity="1" stroke="#E8E2DF" stroke-width="1" /><circle cx="984" cy="732" r="23" fill="#F6EAEB"/><g transform="translate(972,720) scale(1.0)"><path d="M12 22s7-6.3 7-13a7 7 0 1 0-14 0c0 6.7 7 13 7 13Z" fill="none" stroke="#8A1822" stroke-width="1.8" stroke-linecap="round" stroke-linejoin="round"/><circle cx="12" cy="9" r="2.4" fill="none" stroke="#8A1822" stroke-width="1.8" stroke-linecap="round" stroke-linejoin="round"/></g><text x="1022" y="724" font-family="Be Vietnam Pro, Noto Sans, Arial, sans-serif" font-size="11" font-weight="700" letter-spacing="0" fill="#7A7A7A" text-anchor="start" opacity="1">Khu vực hoạt động</text><text x="1022" y="754" font-family="Be Vietnam Pro, Noto Sans, Arial, sans-serif" font-size="16" font-weight="800" letter-spacing="0" fill="#171717" text-anchor="start" opacity="1">Hà Nội</text><rect x="88" y="872" width="1264" height="560" rx="18" fill="#fff" opacity="1" stroke="#E8E2DF" stroke-width="1" /><text x="122" y="924" font-family="Be Vietnam Pro, Noto Sans, Arial, sans-serif" font-size="25" font-weight="800" letter-spacing="0" fill="#171717" text-anchor="start" opacity="1">Gửi yêu cầu tư vấn</text><text x="122" y="954" font-family="Be Vietnam Pro, Noto Sans, Arial, sans-serif" font-size="11.5" font-weight="500" letter-spacing="0" fill="#7A7A7A" text-anchor="start" opacity="1">Form liên hệ chung, không phải chức năng đặt lịch xem nhà.</text><text x="122" y="992" font-family="Be Vietnam Pro, Noto Sans, Arial, sans-serif" font-size="11.5" font-weight="700" letter-spacing="0" fill="#171717" text-anchor="start" opacity="1">Họ và tên</text><rect x="122" y="1008" width="550" height="48" rx="9" fill="#F8F6F4" opacity="1" stroke="#E8E2DF" stroke-width="1" /><text x="696" y="992" font-family="Be Vietnam Pro, Noto Sans, Arial, sans-serif" font-size="11.5" font-weight="700" letter-spacing="0" fill="#171717" text-anchor="start" opacity="1">Số điện thoại</text><rect x="696" y="1008" width="550" height="48" rx="9" fill="#F8F6F4" opacity="1" stroke="#E8E2DF" stroke-width="1" /><text x="122" y="1082" font-family="Be Vietnam Pro, Noto Sans, Arial, sans-serif" font-size="11.5" font-weight="700" letter-spacing="0" fill="#171717" text-anchor="start" opacity="1">Nhu cầu</text><rect x="122" y="1098" width="550" height="48" rx="9" fill="#F8F6F4" opacity="1" stroke="#E8E2DF" stroke-width="1" /><text x="696" y="1082" font-family="Be Vietnam Pro, Noto Sans, Arial, sans-serif" font-size="11.5" font-weight="700" letter-spacing="0" fill="#171717" text-anchor="start" opacity="1">Khu vực quan tâm</text><rect x="696" y="1098" width="550" height="48" rx="9" fill="#F8F6F4" opacity="1" stroke="#E8E2DF" stroke-width="1" /><text x="122" y="1196" font-family="Be Vietnam Pro, Noto Sans, Arial, sans-serif" font-size="11.5" font-weight="700" letter-spacing="0" fill="#171717" text-anchor="start" opacity="1">Nội dung</text><rect x="122" y="1214" width="1124" height="112" rx="9" fill="#F8F6F4" opacity="1" stroke="#E8E2DF" stroke-width="1" /><rect x="1028" y="1348" width="218" height="50" rx="10" fill="#8A1822" opacity="1" /><text x="1137.0" y="1378.0" font-family="Be Vietnam Pro, Noto Sans, Arial, sans-serif" font-size="13" font-weight="700" letter-spacing="0.2" fill="#fff" text-anchor="middle" opacity="1">GỬI YÊU CẦU</text><rect x="0" y="1512" width="1440" height="340" rx="0" fill="#151515" opacity="1" /><rect x="72" y="1566" width="52" height="52" rx="12" fill="#F6EAEB" opacity="1" stroke="#8A1822" stroke-width="1" /><text x="98.0" y="1590.0" font-family="Be Vietnam Pro, Noto Sans, Arial, sans-serif" font-size="9" font-weight="800" letter-spacing="0" fill="#8A1822" text-anchor="middle" opacity="1">NO</text><text x="98.0" y="1602.0" font-family="Be Vietnam Pro, Noto Sans, Arial, sans-serif" font-size="7" font-weight="800" letter-spacing="0" fill="#8A1822" text-anchor="middle" opacity="1">LOGO</text><text x="142" y="1588" font-family="Be Vietnam Pro, Noto Sans, Arial, sans-serif" font-size="19" font-weight="800" letter-spacing="0" fill="#fff" text-anchor="start" opacity="1">NDTHICH LAND</text><text x="72" y="1638" font-family="Be Vietnam Pro, Noto Sans, Arial, sans-serif" font-size="12" font-weight="400" letter-spacing="0" fill="#C6C6C6" text-anchor="start" opacity="1">Bất động sản cho thuê và dự án công ty</text><text x="72" y="1662" font-family="Be Vietnam Pro, Noto Sans, Arial, sans-serif" font-size="12" font-weight="400" letter-spacing="0" fill="#C6C6C6" text-anchor="start" opacity="1">Đầu tư uy tín • Kinh doanh bền vững</text><text x="570" y="1582" font-family="Be Vietnam Pro, Noto Sans, Arial, sans-serif" font-size="12" font-weight="800" letter-spacing="0.6" fill="#fff" text-anchor="start" opacity="1">CHO THUÊ</text><text x="570" y="1617" font-family="Be Vietnam Pro, Noto Sans, Arial, sans-serif" font-size="11.5" font-weight="400" letter-spacing="0" fill="#C6C6C6" text-anchor="start" opacity="1">Căn hộ dịch vụ</text><text x="570" y="1646" font-family="Be Vietnam Pro, Noto Sans, Arial, sans-serif" font-size="11.5" font-weight="400" letter-spacing="0" fill="#C6C6C6" text-anchor="start" opacity="1">Nhà cho thuê</text><text x="570" y="1675" font-family="Be Vietnam Pro, Noto Sans, Arial, sans-serif" font-size="11.5" font-weight="400" letter-spacing="0" fill="#C6C6C6" text-anchor="start" opacity="1">Mặt bằng / văn phòng</text><text x="570" y="1704" font-family="Be Vietnam Pro, Noto Sans, Arial, sans-serif" font-size="11.5" font-weight="400" letter-spacing="0" fill="#C6C6C6" text-anchor="start" opacity="1">Phòng / studio</text><text x="820" y="1582" font-family="Be Vietnam Pro, Noto Sans, Arial, sans-serif" font-size="12" font-weight="800" letter-spacing="0.6" fill="#fff" text-anchor="start" opacity="1">DỰ ÁN</text><text x="820" y="1617" font-family="Be Vietnam Pro, Noto Sans, Arial, sans-serif" font-size="11.5" font-weight="400" letter-spacing="0" fill="#C6C6C6" text-anchor="start" opacity="1">Dự án tiêu biểu</text><text x="820" y="1646" font-family="Be Vietnam Pro, Noto Sans, Arial, sans-serif" font-size="11.5" font-weight="400" letter-spacing="0" fill="#C6C6C6" text-anchor="start" opacity="1">Tiến độ</text><text x="820" y="1675" font-family="Be Vietnam Pro, Noto Sans, Arial, sans-serif" font-size="11.5" font-weight="400" letter-spacing="0" fill="#C6C6C6" text-anchor="start" opacity="1">Tư vấn dự án</text><text x="1070" y="1582" font-family="Be Vietnam Pro, Noto Sans, Arial, sans-serif" font-size="12" font-weight="800" letter-spacing="0.6" fill="#fff" text-anchor="start" opacity="1">LIÊN HỆ</text><text x="1070" y="1617" font-family="Be Vietnam Pro, Noto Sans, Arial, sans-serif" font-size="11.5" font-weight="400" letter-spacing="0" fill="#C6C6C6" text-anchor="start" opacity="1">0986 602 203</text><text x="1070" y="1646" font-family="Be Vietnam Pro, Noto Sans, Arial, sans-serif" font-size="11.5" font-weight="400" letter-spacing="0" fill="#C6C6C6" text-anchor="start" opacity="1">0985 551 396</text><text x="1070" y="1675" font-family="Be Vietnam Pro, Noto Sans, Arial, sans-serif" font-size="11.5" font-weight="400" letter-spacing="0" fill="#C6C6C6" text-anchor="start" opacity="1">Hà Nội</text><line x1="72" y1="1794" x2="1368" y2="1794" stroke="#333" stroke-width="1" opacity="1"/><text x="72" y="1824" font-family="Be Vietnam Pro, Noto Sans, Arial, sans-serif" font-size="10.5" font-weight="500" letter-spacing="0" fill="#888" text-anchor="start" opacity="1">© 2026 Công ty TNHH Đầu tư &amp; Kinh doanh Nguyễn Đắc Thích</text></svg>